<svg xmlns="http://www.w3.org/2000/svg" width="60" height="44.761" viewBox="0 0 60 44.761">
  <g id="组_12" data-name="组 12" transform="translate(-230 -336)">
    <g id="组_11" data-name="组 11">
      <g id="组_2" data-name="组 2" transform="translate(204 307)">
        <path id="路径_1" data-name="路径 1" d="M170.038,247.487a8.877,8.877,0,0,0,7.248-8.538,8.465,8.465,0,0,0-8.7-8.538,8.715,8.715,0,0,0-2.9.569v-.569a11.6,11.6,0,0,0-23.193,0c0,1.138.29,1.992.29,3.131a3.738,3.738,0,0,0-1.739-.285,7.117,7.117,0,1,0,0,14.231Zm0,5.692H141.046A12.875,12.875,0,0,1,128,240.371a13.061,13.061,0,0,1,8.7-12.238,17.432,17.432,0,0,1,17.395-14.8,17.633,17.633,0,0,1,16.525,11.384,14.285,14.285,0,0,1,12.466,14.231A14.552,14.552,0,0,1,170.038,253.179Z" transform="translate(-102 -179.417)" fill="#fff"/>
        <path id="路径_2" data-name="路径 2" d="M170.038,247.487a8.877,8.877,0,0,0,7.248-8.538,8.465,8.465,0,0,0-8.7-8.538,8.715,8.715,0,0,0-2.9.569v-.569a11.6,11.6,0,0,0-23.193,0c0,1.138.29,1.992.29,3.131a3.738,3.738,0,0,0-1.739-.285,7.117,7.117,0,1,0,0,14.231Zm0,5.692H141.046A12.875,12.875,0,0,1,128,240.371a13.061,13.061,0,0,1,8.7-12.238,17.432,17.432,0,0,1,17.395-14.8,17.633,17.633,0,0,1,16.525,11.384,14.285,14.285,0,0,1,12.466,14.231A14.552,14.552,0,0,1,170.038,253.179Z" transform="translate(-100.361 -181.056)" fill="#007fff"/>
        <path id="路径_3" data-name="路径 3" d="M170.038,247.487a8.877,8.877,0,0,0,7.248-8.538,8.465,8.465,0,0,0-8.7-8.538,8.715,8.715,0,0,0-2.9.569v-.569a11.6,11.6,0,0,0-23.193,0c0,1.138.29,1.992.29,3.131a3.738,3.738,0,0,0-1.739-.285,7.117,7.117,0,1,0,0,14.231Zm0,5.692H141.046A12.875,12.875,0,0,1,128,240.371a13.061,13.061,0,0,1,8.7-12.238,17.432,17.432,0,0,1,17.395-14.8,17.633,17.633,0,0,1,16.525,11.384,14.285,14.285,0,0,1,12.466,14.231A14.552,14.552,0,0,1,170.038,253.179Z" transform="translate(-98.723 -182.695)" fill="#ff009d"/>
        <path id="路径_4" data-name="路径 4" d="M170.038,247.487a8.877,8.877,0,0,0,7.248-8.538,8.465,8.465,0,0,0-8.7-8.538,8.715,8.715,0,0,0-2.9.569v-.569a11.6,11.6,0,0,0-23.193,0c0,1.138.29,1.992.29,3.131a3.738,3.738,0,0,0-1.739-.285,7.117,7.117,0,1,0,0,14.231Zm0,5.692H141.046A12.875,12.875,0,0,1,128,240.371a13.061,13.061,0,0,1,8.7-12.238,17.432,17.432,0,0,1,17.395-14.8,17.633,17.633,0,0,1,16.525,11.384,14.285,14.285,0,0,1,12.466,14.231A14.552,14.552,0,0,1,170.038,253.179Z" transform="translate(-97.084 -184.333)" fill="#00ff45"/>
      </g>
    </g>
  </g>
</svg>
